<?xml version="1.0" encoding="utf-8"?>
<!-- Generator: Adobe Illustrator 16.0.0, SVG Export Plug-In . SVG Version: 6.00 Build 0)  -->
<!DOCTYPE svg PUBLIC "-//W3C//DTD SVG 1.1//EN" "http://www.w3.org/Graphics/SVG/1.1/DTD/svg11.dtd">
<svg version="1.1" id="Layer_1" xmlns="http://www.w3.org/2000/svg" xmlns:xlink="http://www.w3.org/1999/xlink" x="0px" y="0px"
	 width="512px" height="512px" viewBox="0 0 512 512" enable-background="new 0 0 512 512" xml:space="preserve">
<path fill="#FFFFFF" d="M408.207,150.644c-12.984,12.954-33.993,12.954-46.979,0c-12.954-12.955-12.954-33.995,0-46.981
	l93.932-93.931c12.985-12.955,33.995-12.955,46.98,0c12.954,12.955,12.954,33.995,0,46.98L408.207,150.644z M255.871,511.727
	L128.008,383.863H32.11c-17.669,0-31.966-14.299-31.966-31.967V160.102c0-17.668,14.297-31.966,31.966-31.966h95.897L255.871,0.272
	c0,0,31.966-3.996,31.966,31.966c0,191.233,0,478.926,0,447.522C287.837,515.722,255.871,511.727,255.871,511.727z M223.905,128.136
	l-63.932,63.932H64.076v127.864h95.896l63.932,63.934L223.905,128.136L223.905,128.136z M383.734,287.965
	c-17.669,0-31.967-14.297-31.967-31.966c0-17.668,14.298-31.966,31.967-31.966h95.896c17.669,0,31.966,14.298,31.966,31.966
	c0,17.669-14.297,31.966-31.966,31.966H383.734z M408.207,361.355l93.933,93.931c12.954,12.986,12.954,34.026,0,46.979
	c-12.985,12.955-33.995,12.955-46.98,0l-93.931-93.931c-12.955-12.985-12.955-34.024,0-46.979
	C374.214,348.4,395.223,348.4,408.207,361.355z"/>
</svg>
